<svg version="1.2" xmlns="http://www.w3.org/2000/svg" viewBox="0 0 1214 1214" width="1000" height="1000">
	<style>
		.s0 { fill: #ffd801 } 
	</style>
	<path id="Path 0" fill-rule="evenodd" class="s0" d="m572 0v151l-7.75 0.58c-4.26 0.31-14.05 1.47-21.75 2.56-7.7 1.09-19.63 3.13-26.5 4.52-6.88 1.39-17.68 3.87-24 5.5-6.32 1.64-17.8 5.02-25.5 7.52-7.7 2.49-20.3 7.01-28 10.05-7.7 3.03-20.75 8.76-29 12.73-8.25 3.97-21.07 10.72-28.5 15-7.43 4.28-18.9 11.39-25.5 15.79-6.6 4.4-16.95 11.71-23 16.26-6.05 4.54-16.18 12.69-22.5 18.11-6.32 5.41-17.59 15.93-25.03 23.36-7.44 7.44-18.18 18.92-23.87 25.52-5.68 6.6-14.38 17.4-19.33 24-4.95 6.6-12.26 16.95-16.25 23-3.99 6.05-10.74 17.07-15.01 24.5-4.26 7.43-9.67 17.32-12.01 22-2.35 4.68-7.18 15.25-10.76 23.5-3.57 8.25-8.82 21.75-11.68 30-2.85 8.25-6.53 19.73-8.16 25.5-1.63 5.77-4.11 15.45-5.51 21.5-1.4 6.05-3.42 15.73-4.49 21.5-1.06 5.77-2.86 17.92-3.99 27-1.12 9.08-2.4 25.27-2.84 36-0.43 10.73-0.41 28.5 0.06 39.5 0.47 11 1.75 27.2 2.84 36 1.1 8.8 2.87 20.73 3.93 26.5 1.07 5.77 3.09 15.45 4.49 21.5 1.4 6.05 3.89 15.73 5.52 21.5 1.64 5.77 5.06 16.58 7.61 24 2.56 7.42 6.68 18.45 9.17 24.5 2.49 6.05 7.33 16.85 10.74 24 3.42 7.15 9.28 18.4 13.03 25 3.75 6.6 9.82 16.73 13.49 22.5 3.67 5.77 10.77 16.13 15.76 23 5 6.88 12.85 16.99 17.44 22.47 4.59 5.49 13.57 15.61 19.95 22.5 6.39 6.89 17.35 17.7 24.37 24.03 7.02 6.33 18 15.68 24.4 20.8 6.4 5.11 17.03 13.05 23.63 17.63 6.6 4.58 18.52 12.24 26.5 17.02 7.98 4.78 22.6 12.67 32.5 17.53 9.9 4.86 24.3 11.31 32 14.33 7.7 3.01 20.3 7.52 28 10.01 7.7 2.5 19.18 5.88 25.5 7.52 6.32 1.63 17.13 4.11 24 5.49 6.88 1.39 17.23 3.22 23 4.07 5.77 0.85 14.77 2.02 20 2.6 5.23 0.58 18.27 1.45 29 1.93 11.29 0.51 27.92 0.49 39.5-0.03 11-0.49 27.2-1.79 36-2.88 8.8-1.09 20.73-2.86 26.5-3.93 5.77-1.07 14.77-2.91 20-4.07 5.23-1.17 14.9-3.65 21.5-5.52 6.6-1.86 18.08-5.47 25.5-8.02 7.42-2.55 18-6.45 23.5-8.67 5.5-2.22 18.1-8 28-12.83 9.9-4.83 25.2-13.14 34-18.46 8.8-5.32 21.85-13.85 29-18.96 7.15-5.11 17.27-12.77 22.5-17.01 5.23-4.25 15.08-12.75 21.9-18.89 6.82-6.14 18.02-17.24 24.89-24.66 6.87-7.42 16.2-18 20.73-23.5 4.54-5.5 12.92-16.52 18.63-24.5 5.7-7.98 14.02-20.58 18.49-28 4.46-7.42 11.06-19.12 14.68-26 3.61-6.87 9.69-19.7 13.5-28.5 3.81-8.8 9.27-22.75 12.12-31 2.85-8.25 6.69-20.4 8.53-27 1.84-6.6 4.51-17.17 5.93-23.5 1.42-6.33 3.48-16.67 4.58-23 1.09-6.33 2.66-17.35 3.49-24.5 0.83-7.15 1.52-13.56 1.52-14.25 0.01-0.99 15.78-1.25 151.01-1.25v4c0 2.2-0.7 10.86-1.55 19.25-0.85 8.39-2.69 22.67-4.07 31.75-1.39 9.08-3.86 23.02-5.5 31-1.63 7.98-4.73 21.25-6.87 29.5-2.15 8.25-5.9 21.3-8.34 29-2.44 7.7-6.9 20.75-9.93 29-3.02 8.25-8.3 21.52-11.72 29.5-3.42 7.98-10.42 22.83-15.56 33-5.14 10.17-13.02 24.8-17.52 32.5-4.5 7.7-12.78 20.98-18.42 29.5-5.63 8.52-14.64 21.35-20.01 28.5-5.37 7.15-15.19 19.52-21.84 27.5-6.64 7.98-22.67 25.1-35.62 38.05-12.95 12.95-30.07 28.97-38.05 35.6-7.98 6.63-20.35 16.46-27.5 21.84-7.15 5.38-19.98 14.39-28.5 20.03-8.52 5.64-21.8 13.94-29.5 18.46-7.7 4.52-24.8 13.53-38 20.03-13.2 6.49-31.87 14.94-41.5 18.77-9.62 3.83-23.58 9.03-31 11.55-7.42 2.52-20.7 6.63-29.5 9.15-8.8 2.51-22.98 6.11-31.5 8.01-8.52 1.9-22.02 4.58-30 5.96-7.98 1.38-19.67 3.17-26 3.99-6.33 0.82-19.94 2.18-30.25 3.03-11.24 0.92-30.56 1.53-48.25 1.53-17.69 0-37.01-0.61-48.25-1.53-10.31-0.85-23.92-2.21-30.25-3.03-6.33-0.82-18.02-2.61-26-3.99-7.98-1.38-21.48-4.06-30-5.96-8.52-1.9-22.7-5.5-31.5-8.01-8.8-2.52-22.07-6.63-29.5-9.15-7.42-2.52-21.37-7.72-31-11.55-9.62-3.83-28.3-12.28-41.5-18.77-13.2-6.5-30.3-15.51-38-20.03-7.7-4.52-20.98-12.82-29.5-18.46-8.52-5.64-21.35-14.66-28.5-20.05-7.15-5.39-19.52-15.22-27.5-21.83-7.97-6.62-25.1-22.63-38.05-35.59-12.95-12.95-28.98-30.07-35.62-38.05-6.65-7.98-16.47-20.35-21.84-27.5-5.37-7.15-14.38-19.98-20.01-28.5-5.64-8.52-13.92-21.8-18.42-29.5-4.5-7.7-12.38-22.33-17.52-32.5-5.14-10.17-12.14-25.02-15.56-33-3.42-7.98-8.7-21.25-11.73-29.5-3.03-8.25-7.48-21.3-9.9-29-2.41-7.7-5.94-19.85-7.84-27-1.9-7.15-5.01-20.42-6.92-29.5-1.9-9.08-4.58-23.92-5.97-33-1.39-9.08-3.26-23.25-4.16-31.5-1.03-9.41-1.84-28.04-2.18-50-0.34-22.11-0.11-41.07 0.62-51.5 0.64-9.08 1.86-22.58 2.7-30 0.85-7.42 2.83-21.15 4.4-30.5 1.57-9.35 4.45-24.2 6.41-33 1.95-8.8 5.56-22.98 8.01-31.5 2.45-8.52 6.33-21.12 8.61-28 2.29-6.87 7.81-21.73 12.28-33 4.46-11.27 13.16-30.62 19.32-43 6.16-12.37 14.89-28.8 19.4-36.5 4.51-7.7 12.81-20.98 18.45-29.5 5.63-8.52 14.64-21.35 20.01-28.5 5.37-7.15 15.19-19.53 21.84-27.5 6.64-7.97 22.67-25.1 35.62-38.05 12.95-12.95 30.08-28.97 38.05-35.6 7.98-6.63 20.35-16.46 27.5-21.84 7.15-5.38 19.98-14.39 28.5-20.03 8.52-5.64 21.8-13.94 29.5-18.46 7.7-4.51 24.8-13.53 38-20.04 13.2-6.5 31.88-14.96 41.5-18.78 9.63-3.83 23.58-9.01 31-11.51 7.43-2.5 20.48-6.55 29-9 8.52-2.45 22.7-6.06 31.5-8.04 8.8-1.97 22.3-4.69 30-6.03 7.7-1.35 21.88-3.38 31.5-4.52 9.63-1.14 19.3-2.23 21.5-2.42 2.2-0.19 6.81-0.42 16.5-0.68zm74.28-0.26l9.11 0.69c5.01 0.38 15.19 1.37 22.61 2.2 7.42 0.83 21.15 2.79 30.5 4.36 9.35 1.56 24.42 4.51 33.5 6.55 9.08 2.03 23.48 5.7 32 8.15 8.52 2.45 21.58 6.5 29 9 7.42 2.5 21.38 7.68 31 11.51 9.63 3.82 28.3 12.28 41.5 18.78 13.2 6.51 30.3 15.53 38 20.04 7.7 4.52 20.98 12.82 29.5 18.46 8.52 5.64 21.35 14.65 28.5 20.03 7.15 5.39 18.73 14.56 25.74 20.39 7 5.83 12.74 11.05 12.75 11.6 0.01 0.55-23.73 24.79-52.74 53.86-40.92 41.01-53.1 52.67-54.29 52-0.85-0.47-5.8-4.28-11-8.46-5.2-4.17-14.41-11.11-20.46-15.42-6.05-4.3-16.17-11.06-22.5-15.02-6.33-3.96-16.23-9.82-22-13.02-5.77-3.2-16.12-8.48-23-11.75-6.87-3.26-17.23-7.87-23-10.23-5.77-2.37-16.58-6.39-24-8.94-7.42-2.55-18.9-6.16-25.5-8.02-6.6-1.87-16.27-4.35-21.5-5.52-5.23-1.16-14.23-3-20-4.07-5.77-1.07-17.7-2.84-26.5-3.93-8.8-1.09-16.34-1.99-16.75-1.98-0.41 0-0.69-34.03-0.61-75.63zm416.22 204.27c0.55 0.01 5.78 5.75 11.62 12.75 5.84 7.01 15.01 18.59 20.39 25.74 5.37 7.15 14.38 19.97 20.01 28.5 5.64 8.52 13.93 21.8 18.42 29.5 4.5 7.7 12.38 22.32 17.52 32.5 5.14 10.17 12.14 25.02 15.56 33 3.43 7.97 8.7 21.25 11.72 29.5 3.03 8.25 7.49 21.3 9.93 29 2.44 7.7 6.19 20.75 8.34 29 2.14 8.25 5.24 21.52 6.87 29.5 1.64 7.97 4.11 21.92 5.5 31 1.38 9.07 3.22 23.36 4.07 31.75 0.85 8.39 1.55 17.27 1.55 24.25l-150.5 0.02-1.3-11.26c-0.71-6.19-2.43-18.24-3.83-26.76-1.39-8.53-3.83-21.13-5.42-28-1.59-6.88-4.22-17.23-5.86-23-1.63-5.78-5.29-17.25-8.15-25.5-2.85-8.25-8.31-22.2-12.12-31-3.81-8.8-9.89-21.63-13.5-28.5-3.62-6.88-10.22-18.58-14.68-26-4.47-7.43-12.78-20.03-18.49-28-5.7-7.98-13.16-17.88-16.56-22-3.41-4.13-6.56-8.18-7.02-9-0.62-1.13 12.1-14.39 52.05-54.25 29.08-29.01 53.32-52.75 53.88-52.74zm-190.22 133.71c0.47 0.43-10.72 22.38-24.86 48.78-14.13 26.4-34.24 63.75-44.68 83-10.44 19.25-26.64 48.95-35.99 66-9.36 17.05-24.22 43.82-33.04 59.5-8.81 15.67-19.63 34.57-24.03 42-4.4 7.42-9.82 16.2-12.04 19.5-2.21 3.3-6.3 8.41-9.08 11.36-2.79 2.95-7.76 7.52-11.06 10.15-3.3 2.63-9.04 6.63-12.75 8.89-3.71 2.25-10.46 5.64-15 7.52-4.54 1.88-12.07 4.19-16.75 5.12-6.38 1.28-11.62 1.59-21 1.23-9.96-0.38-14.23-1.04-21-3.21-4.67-1.51-11.87-4.54-16-6.74-4.12-2.2-10.42-6.19-14-8.85-3.57-2.67-9.73-8.14-13.67-12.16-3.95-4.02-9.48-10.69-12.29-14.81-2.81-4.13-6.49-11.1-8.18-15.5-1.69-4.4-3.69-10.93-4.45-14.5-0.76-3.58-1.38-11.34-1.39-17.25-0.01-5.91 0.61-14.01 1.38-18 0.76-3.99 2.92-11.3 4.78-16.25 1.87-4.95 5.25-12.15 7.51-16 2.27-3.85 6.78-10.15 10.02-14 3.24-3.85 8.57-9.16 11.84-11.8 3.27-2.64 12.25-8.98 19.95-14.09 7.7-5.12 23.23-15.14 34.5-22.28 11.28-7.14 35.13-21.99 53-33.01 17.88-11.01 48.7-29.84 68.5-41.84 19.8-12 59.16-35.71 87.46-52.68 28.31-16.97 51.85-30.51 52.32-30.08z"/>
</svg>