<svg version="1.2" xmlns="http://www.w3.org/2000/svg" viewBox="0 0 1000 1000" width="1000" height="1000">
	<style>
		.s0 { fill: #000000 } 
	</style>
	<path id="Path 0" fill-rule="evenodd" class="s0" d="m471.17 0v124.38l-6.38 0.48c-3.51 0.26-11.58 1.21-17.92 2.11-6.34 0.9-16.17 2.58-21.83 3.72-5.67 1.15-14.56 3.19-19.77 4.53-5.2 1.35-14.66 4.14-21 6.2-6.35 2.05-16.72 5.77-23.07 8.28-6.34 2.49-17.09 7.21-23.89 10.48-6.79 3.27-17.35 8.83-23.47 12.36-6.12 3.52-15.57 9.38-21.01 13-5.43 3.63-13.96 9.65-18.94 13.4-4.99 3.74-13.33 10.45-18.54 14.92-5.2 4.45-14.49 13.12-20.61 19.24-6.13 6.13-14.98 15.58-19.67 21.02-4.67 5.44-11.84 14.33-15.92 19.77-4.08 5.43-10.1 13.96-13.38 18.94-3.29 4.99-8.85 14.06-12.37 20.18-3.51 6.13-7.96 14.27-9.89 18.13-1.94 3.85-5.92 12.56-8.86 19.35-2.94 6.8-7.27 17.92-9.63 24.72-2.34 6.79-5.37 16.25-6.72 21-1.34 4.75-3.38 12.73-4.54 17.71-1.15 4.98-2.81 12.96-3.69 17.71-0.88 4.75-2.36 14.76-3.29 22.24-0.92 7.48-1.98 20.82-2.34 29.66-0.35 8.83-0.34 23.47 0.05 32.53 0.39 9.06 1.44 22.41 2.34 29.66 0.9 7.25 2.36 17.07 3.24 21.83 0.88 4.75 2.54 12.72 3.69 17.71 1.16 4.98 3.21 12.95 4.55 17.71 1.35 4.75 4.17 13.65 6.27 19.76 2.11 6.12 5.5 15.2 7.55 20.19 2.05 4.98 6.04 13.88 8.85 19.77 2.82 5.88 7.64 15.15 10.73 20.59 3.09 5.43 8.09 13.78 11.12 18.53 3.02 4.76 8.87 13.29 12.98 18.95 4.12 5.67 10.58 13.99 14.36 18.51 3.78 4.52 11.18 12.86 16.44 18.53 5.26 5.68 14.29 14.58 20.07 19.79 5.78 5.22 14.83 12.92 20.1 17.14 5.27 4.21 14.03 10.75 19.46 14.52 5.44 3.77 15.26 10.08 21.83 14.02 6.58 3.94 18.62 10.44 26.77 14.44 8.16 4 20.02 9.32 26.36 11.8 6.35 2.48 16.72 6.2 23.07 8.25 6.34 2.06 15.8 4.84 21 6.19 5.21 1.35 14.11 3.39 19.77 4.53 5.67 1.14 14.19 2.65 18.95 3.35 4.75 0.7 12.16 1.66 16.47 2.14 4.31 0.48 15.05 1.19 23.89 1.59 9.3 0.42 23 0.4 32.54-0.02 9.06-0.41 22.4-1.48 29.65-2.38 7.25-0.89 17.08-2.35 21.83-3.23 4.75-0.89 12.17-2.4 16.47-3.36 4.31-0.96 12.28-3 17.71-4.54 5.44-1.54 14.9-4.51 21.01-6.61 6.11-2.1 14.83-5.31 19.36-7.14 4.53-1.83 14.91-6.59 23.06-10.57 8.16-3.98 20.76-10.82 28.01-15.21 7.25-4.38 18-11.4 23.88-15.61 5.89-4.21 14.23-10.52 18.54-14.02 4.31-3.5 12.42-10.5 18.04-15.56 5.62-5.05 14.84-14.2 20.5-20.31 5.66-6.11 13.34-14.83 17.08-19.36 3.74-4.53 10.64-13.6 15.34-20.18 4.7-6.57 11.55-16.95 15.23-23.06 3.68-6.11 9.11-15.75 12.1-21.42 2.97-5.66 7.98-16.23 11.12-23.47 3.13-7.25 7.63-18.74 9.98-25.54 2.35-6.8 5.51-16.8 7.03-22.24 1.51-5.44 3.71-14.14 4.88-19.36 1.17-5.21 2.87-13.73 3.77-18.94 0.9-5.22 2.19-14.29 2.88-20.18 0.68-5.89 1.25-11.17 1.25-11.74 0.01-0.82 13-1.03 124.39-1.03v3.29c0 1.81-0.58 8.95-1.28 15.86-0.7 6.91-2.21 18.67-3.35 26.15-1.14 7.48-3.18 18.96-4.53 25.54-1.34 6.57-3.9 17.5-5.66 24.3-1.77 6.79-4.86 17.54-6.87 23.89-2.01 6.34-5.68 17.09-8.18 23.88-2.49 6.8-6.84 17.73-9.65 24.3-2.82 6.58-8.59 18.81-12.82 27.19-4.23 8.37-10.72 20.42-14.43 26.77-3.71 6.34-10.53 17.28-15.17 24.3-4.64 7.02-12.06 17.58-16.49 23.47-4.42 5.89-12.51 16.08-17.99 22.66-5.47 6.57-18.67 20.67-29.34 31.34-10.67 10.67-24.77 23.86-31.34 29.32-6.57 5.46-16.76 13.56-22.65 17.99-5.89 4.43-16.46 11.86-23.48 16.5-7.02 4.65-17.96 11.48-24.3 15.21-6.34 3.72-20.43 11.14-31.3 16.5-10.87 5.34-26.25 12.3-34.18 15.46-7.93 3.15-19.43 7.44-25.54 9.51-6.11 2.08-17.05 5.46-24.3 7.54-7.25 2.07-18.93 5.03-25.95 6.6-7.02 1.56-18.14 3.77-24.71 4.91-6.57 1.13-16.2 2.61-21.42 3.28-5.21 0.68-16.42 1.8-24.91 2.5-9.26 0.76-25.18 1.26-39.75 1.26-14.57 0-30.48-0.5-39.74-1.26-8.5-0.7-19.71-1.82-24.92-2.5-5.21-0.67-14.84-2.15-21.42-3.28-6.57-1.14-17.69-3.35-24.71-4.91-7.02-1.57-18.7-4.53-25.95-6.6-7.24-2.08-18.18-5.46-24.3-7.54-6.11-2.07-17.6-6.36-25.53-9.51-7.93-3.16-23.31-10.12-34.19-15.46-10.87-5.36-24.95-12.78-31.3-16.5-6.34-3.73-17.28-10.56-24.3-15.21-7.02-4.64-17.58-12.07-23.47-16.51-5.89-4.44-16.08-12.54-22.66-17.99-6.56-5.45-20.67-18.64-31.34-29.31-10.67-10.67-23.87-24.77-29.34-31.34-5.48-6.58-13.57-16.77-17.99-22.66-4.42-5.89-11.84-16.45-16.48-23.47-4.65-7.02-11.47-17.96-15.18-24.3-3.7-6.35-10.19-18.4-14.43-26.77-4.23-8.38-10-20.61-12.81-27.19-2.82-6.57-7.17-17.5-9.67-24.3-2.49-6.79-6.16-17.54-8.15-23.88-1.99-6.35-4.89-16.36-6.46-22.24-1.56-5.89-4.13-16.83-5.7-24.3-1.56-7.48-3.77-19.71-4.92-27.19-1.14-7.48-2.68-19.15-3.42-25.94-0.85-7.76-1.52-23.1-1.8-41.19-0.28-18.21-0.09-33.83 0.51-42.42 0.53-7.48 1.53-18.6 2.23-24.71 0.7-6.12 2.33-17.43 3.62-25.13 1.29-7.7 3.67-19.93 5.28-27.18 1.61-7.25 4.58-18.93 6.6-25.95 2.02-7.02 5.21-17.4 7.09-23.06 1.89-5.66 6.43-17.9 10.12-27.19 3.67-9.28 10.84-25.22 15.91-35.42 5.07-10.18 12.27-23.72 15.98-30.06 3.72-6.34 10.55-17.28 15.2-24.3 4.64-7.02 12.06-17.59 16.48-23.48 4.42-5.89 12.51-16.08 17.99-22.65 5.47-6.56 18.67-20.67 29.34-31.34 10.67-10.67 24.78-23.87 31.34-29.33 6.58-5.46 16.77-13.56 22.66-17.99 5.89-4.43 16.45-11.85 23.47-16.5 7.02-4.64 17.96-11.48 24.3-15.2 6.35-3.72 20.43-11.15 31.3-16.51 10.88-5.35 26.26-12.32 34.19-15.47 7.93-3.15 19.42-7.42 25.53-9.48 6.12-2.06 16.87-5.4 23.89-7.41 7.02-2.02 18.7-5 25.95-6.63 7.25-1.62 18.37-3.86 24.71-4.96 6.34-1.12 18.02-2.79 25.95-3.73 7.93-0.94 15.9-1.83 17.71-1.99 1.81-0.16 5.61-0.35 13.59-0.56zm61.19-0.21l7.5 0.56c4.13 0.32 12.51 1.13 18.62 1.82 6.12 0.68 17.43 2.29 25.13 3.59 7.7 1.28 20.11 3.71 27.59 5.39 7.48 1.68 19.34 4.7 26.36 6.72 7.02 2.01 17.78 5.35 23.89 7.41 6.11 2.06 17.61 6.33 25.54 9.48 7.93 3.15 23.31 10.12 34.18 15.47 10.87 5.36 24.96 12.79 31.3 16.51 6.34 3.72 17.28 10.56 24.3 15.2 7.02 4.65 17.59 12.07 23.48 16.5 5.89 4.44 15.43 12 21.2 16.8 5.77 4.8 10.49 9.1 10.5 9.55 0.01 0.46-19.54 20.42-43.44 44.37-33.71 33.78-43.74 43.39-44.72 42.83-0.7-0.38-4.78-3.52-9.06-6.97-4.29-3.43-11.87-9.15-16.86-12.7-4.98-3.54-13.31-9.11-18.53-12.37-5.21-3.26-13.37-8.09-18.12-10.72-4.75-2.64-13.28-6.99-18.95-9.68-5.66-2.69-14.19-6.49-18.94-8.43-4.76-1.95-13.66-5.26-19.77-7.36-6.11-2.1-15.57-5.08-21.01-6.61-5.43-1.54-13.4-3.58-17.71-4.55-4.3-0.95-11.72-2.47-16.47-3.35-4.75-0.88-14.58-2.34-21.83-3.24-7.25-0.89-13.46-1.64-13.8-1.63-0.33 0-0.57-28.03-0.5-62.3zm342.85 168.27c0.45 0 4.76 4.73 9.57 10.5 4.81 5.77 12.37 15.31 16.8 21.2 4.42 5.89 11.84 16.45 16.48 23.48 4.65 7.02 11.48 17.95 15.17 24.3 3.71 6.34 10.2 18.38 14.44 26.77 4.23 8.38 10 20.61 12.81 27.18 2.83 6.57 7.17 17.51 9.66 24.3 2.49 6.8 6.17 17.55 8.18 23.89 2.01 6.34 5.09 17.09 6.87 23.89 1.76 6.79 4.31 17.72 5.65 24.3 1.36 6.56 3.39 18.05 4.54 25.53 1.13 7.47 2.65 19.24 3.35 26.16 0.7 6.91 1.27 14.22 1.27 19.97l-123.97 0.02-1.07-9.28c-0.58-5.1-2-15.02-3.15-22.04-1.15-7.03-3.16-17.41-4.47-23.07-1.31-5.66-3.47-14.19-4.82-18.94-1.35-4.76-4.36-14.21-6.72-21.01-2.34-6.79-6.84-18.28-9.98-25.53-3.14-7.25-8.15-17.82-11.12-23.48-2.98-5.66-8.42-15.3-12.09-21.41-3.68-6.12-10.53-16.5-15.23-23.07-4.7-6.57-10.84-14.73-13.64-18.12-2.81-3.4-5.41-6.74-5.79-7.41-0.51-0.93 9.97-11.86 42.88-44.69 23.95-23.9 43.92-43.45 44.38-43.44zm-156.69 110.14c0.39 0.35-8.83 18.43-20.48 40.18-11.63 21.74-28.2 52.51-36.8 68.37-8.6 15.85-21.94 40.32-29.65 54.36-7.71 14.05-19.95 36.1-27.21 49.01-7.26 12.91-16.17 28.48-19.8 34.6-3.62 6.11-8.08 13.34-9.91 16.06-1.82 2.72-5.19 6.93-7.48 9.36-2.3 2.43-6.39 6.19-9.11 8.36-2.72 2.17-7.45 5.46-10.51 7.32-3.05 1.86-8.61 4.65-12.35 6.2-3.74 1.55-9.94 3.45-13.8 4.22-5.25 1.05-9.57 1.31-17.3 1.01-8.2-0.31-11.72-0.86-17.29-2.65-3.85-1.24-9.78-3.74-13.18-5.55-3.4-1.81-8.59-5.1-11.54-7.29-2.94-2.2-8.01-6.7-11.26-10.01-3.25-3.32-7.81-8.81-10.12-12.2-2.32-3.41-5.35-9.15-6.74-12.77-1.39-3.63-3.04-9-3.66-11.94-0.63-2.95-1.14-9.35-1.15-14.21-0.01-4.87 0.5-11.54 1.14-14.83 0.62-3.29 2.4-9.31 3.94-13.39 1.54-4.07 4.32-10 6.18-13.18 1.87-3.17 5.59-8.36 8.25-11.53 2.67-3.17 7.06-7.54 9.76-9.72 2.69-2.17 10.09-7.4 16.43-11.6 6.34-4.22 19.14-12.48 28.42-18.36 9.29-5.88 28.94-18.11 43.66-27.19 14.73-9.07 40.11-24.58 56.42-34.46 16.31-9.89 48.73-29.42 72.04-43.4 23.32-13.97 42.71-25.13 43.1-24.77z"/>
</svg>