<svg version="1.2" xmlns="http://www.w3.org/2000/svg" viewBox="0 0 199 152" width="199" height="152">
	<style>
		.s0 { fill: #ffffff } 
	</style>
	<path id="Path 0" fill-rule="evenodd" class="s0" d="m197.25 0.08c0.96-0.04 1.75 0.48 1.76 1.17 0 0.69-1.17 6.43-2.62 12.75-1.44 6.32-3.13 12.03-3.75 12.68-0.63 0.64-7.67 3.03-15.64 5.3-7.97 2.27-15.18 4.3-16 4.52-0.82 0.22-2.05 1.65-2.73 3.2-0.67 1.54-1.94 6.4-2.82 10.8-0.88 4.4-2.24 9.01-3.02 10.25-0.89 1.39-3.43 2.81-6.68 3.72-2.89 0.82-8.63 1.97-12.75 2.58-4.13 0.6-9.08 1.49-14.5 2.85l-3 12.52c-2.48 10.36-3.35 12.6-5 12.98-1.1 0.25-8.44 1.5-16.31 2.78-13.61 2.21-14.34 2.44-14.92 4.82-0.33 1.37-1.76 7-5.77 22.5l-12 0.61c-6.6 0.34-13.8 0.68-20 0.87l-8.17 24.52-16.41-0.33c-9.03-0.18-16.65-0.55-16.92-0.82-0.27-0.27 1.08-6.57 6.5-27.51l29 1.48 3.75-10.91c2.06-6 3.75-11.25 3.75-11.66 0-0.41-4.61-1.03-10.25-1.36-5.64-0.34-12.06-0.9-18.29-1.89l4.04-26.59 32 1.38 2.26-10.9c1.24-5.99 2.25-11.23 2.25-11.64-0.01-0.41-6.65-0.74-14.76-0.72-8.11 0.01-14.98-0.19-15.25-0.45-0.27-0.26 0.85-6.58 5.5-27.6l17-0.02c9.35-0.01 17.22 0.21 17.5 0.49 0.28 0.28-0.66 4.91-2.09 10.28-1.42 5.37-2.88 11.01-3.91 15.27h6.25c3.44 0.01 10.38-0.33 24.6-1.5l6.3-24 16.37-2.5c9-1.37 16.73-2.14 17.18-1.71 0.44 0.43-0.2 5.61-1.43 11.5-1.22 5.89-2.12 10.8-2 10.92 0.13 0.12 6.85-1.23 29.65-6.21l6.14-25 16.72-4.67c9.2-2.57 17.51-4.71 18.47-4.75zm-106.48 49.92c-0.23 0.28-1.41 5.23-2.61 11-1.2 5.78-2.18 10.84-2.17 11.25 0.01 0.41 1.92 0.5 4.26 0.2 2.34-0.31 8.53-1.24 13.75-2.08 5.22-0.84 10.05-1.83 10.73-2.2 0.67-0.37 2.59-5.39 4.25-11.17 1.66-5.77 3.02-10.61 3.02-10.75 0-0.14-1.24-0.2-2.75-0.13-1.51 0.07-8.45 0.86-15.41 1.75-6.96 0.9-12.84 1.86-13.07 2.13zm-40.93 37.3c-1.46 6.16-2.59 11.2-2.5 11.2 0.09 0 6.69-0.14 14.66-0.3l14.5-0.31c3.54-14.25 4.77-19.4 5.03-20.64 0.47-2.24 0.43-2.25-11.78-2.1-6.74 0.08-13.37 0.33-14.75 0.55-2.3 0.36-2.72 1.31-5.16 11.6z"/>
</svg>