<svg version="1.2" xmlns="http://www.w3.org/2000/svg" viewBox="0 0 2198 2200" width="2198" height="2200">
	<style>
		.s0 { fill: #ffffff } 
	</style>
	<path id="Path 0" fill-rule="evenodd" class="s0" d="m1106 0.54c38.25 0.19 59.2 0.73 73.5 1.89 11 0.89 30.13 2.74 42.5 4.12 12.38 1.37 32.85 4.09 45.5 6.04 12.65 1.94 34.25 5.79 48 8.54 13.75 2.76 36.7 7.95 51 11.53 14.3 3.59 34.78 9.15 45.5 12.36 10.72 3.21 26.47 8.17 35 11.01 8.53 2.85 24.05 8.34 34.5 12.22 10.45 3.87 26.88 10.3 36.5 14.29 9.63 3.99 25.04 10.67 34.25 14.85 9.21 4.19 26.2 12.33 37.75 18.11 11.55 5.78 28.09 14.39 36.75 19.14 8.66 4.75 24.97 14.15 36.25 20.89 11.28 6.73 31.3 19.45 44.5 28.25 13.2 8.8 30.3 20.61 38 26.23 7.7 5.63 19.85 14.78 27 20.34 7.15 5.56 20.88 16.68 30.5 24.72 9.63 8.04 22.9 19.47 29.5 25.41 6.6 5.94 19.39 17.82 28.42 26.41 9.03 8.58 24.29 23.93 33.91 34.11 9.61 10.18 23 24.8 29.74 32.5 6.75 7.7 16.38 18.95 21.4 25 5.03 6.05 14.24 17.52 20.47 25.5 6.23 7.98 15.92 20.8 21.55 28.5 5.62 7.7 17.43 24.8 26.23 38 8.8 13.2 21.52 33.23 28.25 44.5 6.74 11.27 16.14 27.59 20.89 36.25 4.75 8.66 13.36 25.2 19.14 36.75 5.78 11.55 13.92 28.54 18.11 37.75 4.18 9.21 10.96 24.85 15.06 34.75 4.1 9.9 10.75 27 14.78 38 4.03 11 10.28 29 13.88 40 3.6 11 8.63 27.2 11.18 36 2.54 8.8 7.31 26.8 10.59 40 3.28 13.2 8.17 35.02 10.87 48.5 2.7 13.48 6.5 34.85 8.44 47.5 1.95 12.65 4.67 33.13 6.04 45.5 1.38 12.38 3.29 32.17 4.25 44 1.4 17.21 1.75 33.17 1.75 80 0 46.83-0.35 62.79-1.75 80-0.96 11.83-2.87 31.63-4.25 44-1.37 12.38-4.09 32.85-6.04 45.5-1.94 12.65-5.74 34.03-8.44 47.5-2.7 13.47-7.42 34.63-10.49 47-3.07 12.38-7.83 30.38-10.58 40-2.76 9.63-8.42 27.85-12.59 40.5-4.17 12.65-10.7 31.33-14.51 41.5-3.81 10.17-10 25.92-13.76 35-3.75 9.08-10.25 24.04-14.43 33.25-4.19 9.21-12.33 26.2-18.11 37.75-5.78 11.55-14.39 28.09-19.13 36.75-4.75 8.66-14.3 25.2-21.23 36.75-6.92 11.55-19.17 30.9-27.22 43-8.06 12.1-20.39 29.88-27.41 39.5-7.02 9.63-16.64 22.45-21.38 28.5-4.73 6.05-15.18 18.88-23.21 28.5-8.03 9.63-21.08 24.7-28.99 33.5-7.92 8.8-24.98 26.58-37.91 39.52-12.94 12.93-30.72 29.99-39.52 37.91-8.8 7.92-24.33 21.35-34.5 29.84-10.17 8.48-26.6 21.61-36.5 29.16-9.9 7.56-24.08 18.03-31.5 23.27-7.42 5.25-22.05 15.17-32.5 22.06-10.45 6.88-28 17.9-39 24.49-11 6.59-27.09 15.87-35.75 20.62-8.66 4.75-25.2 13.35-36.75 19.13-11.55 5.78-28.54 13.92-37.75 18.11-9.21 4.18-24.17 10.68-33.25 14.43-9.08 3.76-24.83 9.95-35 13.76-10.17 3.81-28.85 10.34-41.5 14.51-12.65 4.17-30.88 9.83-40.5 12.59-9.63 2.75-27.63 7.51-40 10.58-12.38 3.07-33.53 7.79-47 10.48-13.47 2.69-33.28 6.26-44 7.93-10.72 1.67-26.7 3.93-35.5 5.03-8.8 1.09-23.2 2.67-32 3.5-8.8 0.83-23.42 2.09-32.5 2.79-10.74 0.84-36.05 1.29-72.5 1.29-36.62 0-61.88-0.45-73-1.3-9.35-0.72-26-2.19-37-3.26-11-1.08-26.98-2.88-35.5-4-8.52-1.12-23.6-3.37-33.5-4.99-9.9-1.62-24.75-4.26-33-5.88-8.25-1.62-20.4-4.12-27-5.56-6.6-1.44-19.2-4.42-28-6.62-8.8-2.2-24.55-6.42-35-9.37-10.45-2.95-28.23-8.38-39.5-12.06-11.27-3.69-28.38-9.6-38-13.14-9.63-3.54-22.67-8.5-29-11.02-6.33-2.53-19.83-8.16-30-12.53-10.17-4.37-30.2-13.67-44.5-20.66-14.3-7-34.1-17.14-44-22.55-9.9-5.41-27.23-15.36-38.5-22.12-11.27-6.75-29.5-18.23-40.5-25.5-11-7.27-24.73-16.61-30.5-20.77-5.77-4.15-14.77-10.7-20-14.55-5.23-3.84-14.68-11.04-21-15.99-6.32-4.95-18.02-14.41-26-21.03-7.98-6.62-20.8-17.64-28.5-24.5-7.7-6.86-21.16-19.25-29.91-27.53-8.75-8.29-24.02-23.62-33.94-34.07-9.92-10.45-24.14-25.97-31.6-34.5-7.46-8.53-18.54-21.58-24.62-29-6.09-7.42-16.25-20.25-22.59-28.5-6.34-8.25-16.19-21.53-21.88-29.5-5.7-7.97-16.3-23.5-23.55-34.5-7.26-11-18.58-29-25.15-40-6.57-11-16.39-28.1-21.8-38-5.42-9.9-15.79-30.15-23.05-45-7.25-14.85-17.69-37.58-23.18-50.5-5.5-12.92-13.6-33.17-18-45-4.41-11.83-10.97-30.5-14.6-41.5-3.62-11-6.6-20.79-6.61-21.75-0.01-1.15 0.58-1.62 1.73-1.38 0.96 0.21 66.55 27.14 145.75 59.85 79.2 32.7 172.21 71.12 269.36 111.28l0.57 3.75c0.31 2.06 2.18 9.04 4.15 15.5 1.97 6.46 5.17 16.03 7.12 21.25 1.95 5.22 5.56 14 8.01 19.5 2.46 5.5 7.32 15.17 10.81 21.5 3.48 6.33 9.34 16 13.02 21.5 3.67 5.5 10.34 14.72 14.82 20.48 4.48 5.77 14.66 17.05 22.64 25.08 7.98 8.02 17.87 17.3 22 20.62 4.12 3.32 11.55 8.94 16.5 12.49 4.95 3.55 13.16 9.01 18.25 12.14 5.09 3.13 14.99 8.59 22 12.13 7.01 3.54 17.92 8.52 24.25 11.06 6.33 2.54 17.12 6.35 24 8.47 6.87 2.11 17.9 4.98 24.5 6.37 6.6 1.4 17.4 3.35 24 4.34 9.49 1.42 17.96 1.79 40.5 1.75 24.17-0.04 30.62-0.38 42.5-2.23 7.7-1.2 19.62-3.54 26.5-5.21 6.87-1.67 17.45-4.65 23.5-6.63 6.05-1.97 15.5-5.38 21-7.56 5.5-2.18 16.74-7.42 24.98-11.63 8.25-4.22 20.85-11.53 28-16.24 7.16-4.71 17.75-12.32 23.52-16.91 5.77-4.59 16.84-14.68 24.59-22.43 7.75-7.75 17.84-18.81 22.43-24.59 4.59-5.78 12.2-16.36 16.91-23.52 4.71-7.16 11.79-19.31 15.73-27 3.94-7.69 9.02-18.48 11.3-23.98 2.27-5.5 6.09-16.08 8.48-23.5 2.39-7.42 5.55-18.9 7.04-25.5 1.48-6.6 3.59-18.08 4.68-25.5 1.1-7.42 2.3-21.83 3.34-50.5l192.5-137.58c189.14-135.18 192.57-137.57 196.5-137.14 2.2 0.24 13.22-0.07 24.5-0.68 11.28-0.61 25.9-1.81 32.5-2.67 6.6-0.85 17.85-2.63 25-3.95 7.15-1.31 19.08-3.94 26.5-5.84 7.42-1.9 18.67-5.13 25-7.17 6.33-2.04 17.35-6 24.5-8.8 7.15-2.79 22.22-9.7 33.5-15.34 11.28-5.64 26.8-14.21 34.5-19.04 7.7-4.84 20.08-13.31 27.5-18.84 7.42-5.53 18.22-14.15 24-19.15 5.78-5 16.66-15.33 24.19-22.95 7.53-7.62 17.14-17.9 21.36-22.85 4.22-4.95 11.39-13.95 15.94-20 4.54-6.05 11.64-16.17 15.77-22.5 4.13-6.33 10.35-16.45 13.82-22.5 3.46-6.05 9.33-17.3 13.04-25 3.7-7.7 8.96-19.62 11.69-26.5 2.72-6.87 6.85-18.35 9.16-25.5 2.32-7.15 5.77-19.08 7.67-26.5 1.9-7.42 4.52-19.35 5.83-26.5 1.31-7.15 3.2-19.3 4.21-27 1.46-11.23 1.82-20.92 1.82-49 0-28.08-0.36-37.77-1.82-49-1.01-7.7-2.9-19.85-4.21-27-1.31-7.15-3.93-19.08-5.83-26.5-1.9-7.42-5.35-19.35-7.67-26.5-2.31-7.15-6.45-18.62-9.18-25.5-2.74-6.87-8-18.8-11.69-26.5-3.69-7.7-9.54-18.95-13-25-3.45-6.05-10.93-17.98-16.61-26.5-5.69-8.52-15.18-21.58-21.1-29-5.94-7.46-19.74-22.48-30.82-33.57-11.07-11.06-26.13-24.89-33.57-30.83-7.42-5.92-20.03-15.16-28-20.54-7.97-5.38-19-12.38-24.5-15.57-5.5-3.18-17.2-9.33-26-13.66-8.8-4.33-22.75-10.52-31-13.75-8.25-3.23-20.17-7.48-26.5-9.44-6.33-1.97-16.9-4.91-23.5-6.54-6.6-1.64-17.85-4.1-25-5.47-7.15-1.37-19.08-3.23-26.5-4.13-7.42-0.9-21.83-1.96-32-2.34-10.17-0.38-26.6-0.38-36.5-0.01-9.9 0.38-23.85 1.43-31 2.35-7.15 0.91-19.08 2.77-26.5 4.13-7.42 1.36-18.9 3.83-25.5 5.49-6.6 1.67-19.88 5.64-29.5 8.83-9.63 3.19-24.03 8.59-32 12-7.97 3.41-20.58 9.37-28 13.24-7.42 3.87-18.78 10.25-25.23 14.17-6.44 3.93-17.24 11.05-24 15.82-6.75 4.78-18.12 13.54-25.27 19.47-7.15 5.94-18.33 15.98-24.85 22.32-6.52 6.34-15.84 16.03-20.71 21.53-4.88 5.5-12.74 14.95-17.48 21-4.74 6.05-13.24 17.98-18.88 26.5-5.64 8.52-12.3 19.1-14.79 23.5-2.5 4.4-7.47 13.85-11.05 21-3.58 7.15-8.88 18.63-11.77 25.5-2.89 6.87-7.65 19.7-10.58 28.5-2.93 8.8-6.87 22.08-8.76 29.5-1.88 7.42-4.6 20.02-6.03 28-1.43 7.98-3.29 20.35-4.14 27.5-0.84 7.15-1.81 22-2.75 53l-129.01 187.5c-70.95 103.13-131.36 190.88-139.48 202.5l-19.36 0.7c-10.65 0.39-24.99 1.42-31.86 2.3-6.88 0.88-17.67 2.7-24 4.04-6.33 1.34-16 3.73-21.5 5.3-5.5 1.58-14.95 4.69-21 6.91-6.05 2.22-15.28 5.92-20.5 8.22-5.23 2.3-13.33 6.24-18 8.77-4.67 2.53-11.99 6.77-16.25 9.43-4.26 2.66-8.31 4.82-9 4.81-0.69-0.01-131.97-53.83-291.75-119.61-159.78-65.78-292.69-120.56-300.25-123.87l0.68-8.5c0.37-4.67 1.35-15.7 2.17-24.5 0.82-8.8 2.39-23.2 3.48-32 1.1-8.8 3.35-24.77 5.02-35.5 1.66-10.73 5.23-30.52 7.92-44 2.69-13.48 7.41-34.63 10.49-47 3.07-12.37 7.83-30.37 10.58-40 2.74-9.62 9.2-30.1 14.35-45.5 5.15-15.4 12.58-36.33 16.52-46.5 3.93-10.17 10.33-25.92 14.22-35 3.89-9.08 9.88-22.58 13.32-30 3.43-7.42 10.64-22.27 16-33 5.37-10.73 14.26-27.6 19.75-37.5 5.49-9.9 14.7-25.87 20.47-35.5 5.78-9.62 17.82-28.52 26.78-42 8.95-13.48 23.15-33.73 31.54-45 8.4-11.27 19.78-26.12 25.29-33 5.52-6.87 13.44-16.55 17.6-21.5 4.16-4.95 12.97-15.07 19.57-22.5 6.59-7.43 19.69-21.6 29.1-31.5 9.41-9.9 26.28-26.61 37.5-37.13 11.22-10.53 26.47-24.42 33.9-30.87 7.42-6.45 20.02-17 28-23.43 7.97-6.44 18.55-14.85 23.5-18.7 4.95-3.84 15.07-11.42 22.5-16.85 7.42-5.43 22.95-16.25 34.5-24.05 11.55-7.79 28.2-18.59 37-23.99 8.8-5.41 23.42-14.08 32.5-19.28 9.08-5.21 27.75-15.22 41.5-22.27 13.75-7.04 31.97-16.04 40.5-19.98 8.52-3.95 23.15-10.44 32.5-14.42 9.35-3.99 25.55-10.52 36-14.52 10.45-4 30.92-11.25 45.5-16.1 14.58-4.85 34.37-11.06 44-13.81 9.62-2.74 25.83-7.07 36-9.62 10.17-2.55 26.6-6.36 36.5-8.48 9.9-2.12 25.65-5.23 35-6.91 9.35-1.68 24.42-4.17 33.5-5.54 9.08-1.36 26.62-3.61 39-4.99 12.37-1.39 32.17-3.2 44-4.04 11.83-0.84 24.42-1.69 28-1.89 3.58-0.2 30.58-0.24 60-0.09zm359 544.99c9.62 0.22 22.9 1.12 29.5 1.99 6.6 0.87 17.17 2.67 23.5 4 6.33 1.34 15.78 3.75 21 5.36 5.22 1.62 12.87 4.16 17 5.65 4.12 1.5 12 4.73 17.5 7.19 5.5 2.46 14.5 6.98 20 10.05 5.5 3.07 14.5 8.58 20 12.26 5.5 3.67 13.6 9.52 18 13 4.4 3.47 11.78 9.73 16.4 13.89 4.62 4.17 12.45 12.08 17.39 17.58 4.94 5.5 12.66 14.95 17.16 21 4.5 6.05 10.6 14.83 13.56 19.5 2.96 4.67 8.14 13.9 11.51 20.5 3.37 6.6 8.43 17.85 11.25 25 2.82 7.15 6.74 18.85 8.71 26 1.97 7.15 4.66 18.85 5.98 26 1.31 7.15 2.93 19.3 3.6 27 0.73 8.45 0.98 20.93 0.63 31.5-0.32 9.62-1.08 21.33-1.68 26-0.6 4.67-2.22 14.12-3.6 21-1.37 6.87-4.05 17.79-5.95 24.25-1.9 6.46-5.09 15.91-7.08 21-1.99 5.09-6.22 14.65-9.4 21.25-3.18 6.6-8.8 16.95-12.49 23-3.69 6.05-10.41 15.95-14.92 22-4.52 6.05-12.26 15.5-17.21 21-4.94 5.5-13.46 14.02-18.93 18.93-5.46 4.91-14.88 12.62-20.93 17.14-6.05 4.51-15.95 11.23-22 14.92-6.05 3.69-16.4 9.31-23 12.49-6.6 3.18-17.51 7.86-24.25 10.4-6.74 2.54-18.21 6.19-25.5 8.1-7.29 1.91-18.42 4.36-24.75 5.43-6.33 1.07-18.03 2.49-26 3.15-8.82 0.73-20.77 0.95-30.5 0.56-8.8-0.36-22.3-1.57-30-2.69-7.7-1.13-18.5-3.11-24-4.41-5.5-1.3-14.5-3.8-20-5.56-5.5-1.76-14.5-4.98-20-7.17-5.5-2.18-15.63-6.83-22.5-10.33-6.88-3.49-17.22-9.35-23-13.02-5.78-3.67-15-10.11-20.5-14.31-5.5-4.2-16.02-13.48-23.37-20.63-7.36-7.15-16.97-17.27-21.35-22.5-4.39-5.23-11.9-15.35-16.69-22.5-4.79-7.15-10.92-17.05-13.62-22-2.7-4.95-7.23-14.17-10.06-20.5-2.84-6.33-7.19-17.58-9.68-25-2.48-7.42-5.68-18.67-7.09-25-1.41-6.33-3.25-15.77-4.08-21-0.83-5.23-2-16.7-2.62-25.5-0.61-8.8-0.82-20.95-0.47-27 0.35-6.05 1.09-15.5 1.65-21 0.55-5.5 2.15-15.85 3.54-23 1.39-7.15 4.03-18.17 5.87-24.5 1.84-6.33 5.87-17.8 8.96-25.5 3.08-7.7 8.33-19.17 11.65-25.5 3.33-6.33 9.27-16.45 13.2-22.5 3.93-6.05 11.48-16.4 16.77-23 5.3-6.6 15.87-18.08 23.51-25.5 7.63-7.42 19.06-17.39 25.38-22.16 6.33-4.76 16.34-11.62 22.25-15.25 5.91-3.62 15.25-8.84 20.75-11.59 5.5-2.75 13.94-6.64 18.75-8.64 4.81-2 12.58-4.95 17.25-6.55 4.67-1.6 14.58-4.41 22-6.25 7.42-1.84 18.22-4.09 24-5 5.78-0.92 15.22-2.06 21-2.54 5.78-0.49 18.37-0.7 28-0.49zm-45.5 73.55c-6.05 1.18-17.08 4.13-24.5 6.54-7.42 2.42-19.35 7.27-26.5 10.79-7.15 3.52-16.6 8.76-21 11.64-4.4 2.89-10.92 7.46-14.5 10.16-3.58 2.71-10.51 8.6-15.41 13.1-4.91 4.51-12.49 12.46-16.85 17.69-4.36 5.23-10.94 14-14.62 19.5-3.68 5.5-8.99 14.5-11.79 20-2.8 5.5-6.69 14.05-8.65 19-1.96 4.95-4.73 13.05-6.16 18-1.42 4.95-3.46 13.5-4.53 19-1.07 5.5-2.41 14.73-2.97 20.5-0.57 5.77-1.03 14.33-1.03 19 0 4.67 0.45 13.23 1.01 19 0.56 5.77 1.97 15.45 3.12 21.5 1.16 6.05 4.09 17.08 6.5 24.5 2.42 7.42 7.27 19.35 10.78 26.5 3.52 7.15 9.21 17.27 12.65 22.5 3.44 5.23 8.76 12.65 11.83 16.5 3.07 3.85 9.03 10.6 13.25 15 4.21 4.4 11.78 11.37 16.82 15.5 5.03 4.12 13.06 10.12 17.85 13.32 4.78 3.2 15.45 9.14 23.7 13.2 8.25 4.05 19.72 8.92 25.5 10.82 5.78 1.89 15 4.43 20.5 5.63 5.5 1.2 15.17 2.81 21.5 3.58 6.33 0.76 16.67 1.4 23 1.42 6.33 0.01 17.58-0.68 25-1.54 7.42-0.87 19.58-3.14 27-5.04 7.42-1.91 18.67-5.51 25-8.02 6.33-2.51 15.33-6.6 20-9.09 4.67-2.49 12.33-7 17-10.02 4.67-3.02 11.65-8 15.5-11.07 3.85-3.06 10.77-9.2 15.39-13.63 4.61-4.43 11.78-12.11 15.92-17.06 4.15-4.95 10.67-13.73 14.48-19.5 3.82-5.77 9.57-15.9 12.79-22.5 3.22-6.6 7.85-18.08 10.29-25.5 2.44-7.42 5.37-18.23 6.52-24 1.14-5.77 2.53-14.55 3.09-19.5 0.55-4.95 1-15.08 1-22.5 0-7.42-0.45-17.55-1-22.5-0.56-4.95-1.94-13.73-3.09-19.5-1.14-5.77-4.09-16.58-6.56-24-2.46-7.42-7.11-18.9-10.33-25.5-3.21-6.6-9.3-17.17-13.53-23.5-4.22-6.33-10.51-14.88-13.96-19-3.45-4.13-10.49-11.56-15.64-16.53-5.16-4.97-12.97-11.75-17.37-15.07-4.4-3.32-10.03-7.41-12.5-9.08-2.47-1.68-8.66-5.37-13.75-8.19-5.09-2.82-14.09-7.2-20-9.72-5.91-2.53-15.92-6.08-22.25-7.9-6.33-1.82-15.33-4.01-20-4.87-4.67-0.86-13.22-2.03-19-2.61-5.78-0.57-15.45-0.98-21.5-0.9-6.05 0.07-14.6 0.51-19 0.97-4.4 0.46-12.95 1.8-19 2.98zm-654 671.46c9.35 0.23 21.72 1.12 27.5 1.99 5.77 0.86 15.45 2.73 21.5 4.15 6.05 1.43 16.17 4.36 22.5 6.51 6.33 2.16 18.25 7.22 26.5 11.25 8.25 4.03 19.72 10.45 25.5 14.28 5.77 3.82 13.87 9.65 18 12.94 4.12 3.3 11.28 9.56 15.9 13.92 4.62 4.35 11.97 12.2 16.34 17.42 4.37 5.22 11.56 14.9 15.98 21.5 4.41 6.6 11.25 18.53 15.19 26.5 3.95 7.97 8.87 19.22 10.94 25 2.08 5.78 5.08 15.67 6.68 22 1.6 6.32 3.64 15.78 4.54 21 0.97 5.63 1.85 18.06 2.16 30.5 0.33 13.15 0.08 24.92-0.66 31.5-0.65 5.78-2.31 16.12-3.69 23-1.37 6.87-4.75 19.25-7.5 27.5-2.75 8.25-8.09 21.3-11.86 29-3.78 7.7-10.45 19.4-14.84 26-4.38 6.6-11.55 16.28-15.93 21.5-4.37 5.22-12.63 13.95-18.35 19.38-5.72 5.43-14.45 12.92-19.4 16.63-4.95 3.72-13.05 9.31-18 12.43-4.95 3.12-14.85 8.54-22 12.05-7.15 3.51-19.75 8.62-28 11.36-8.25 2.74-19.28 5.89-24.5 7.02-5.23 1.12-14.79 2.73-21.25 3.58-6.81 0.9-19.21 1.55-29.5 1.55-9.76 0-21.58-0.46-26.25-1.02-4.67-0.57-13.23-1.94-19-3.06-5.78-1.12-15.23-3.4-21-5.07-5.78-1.67-15.23-4.96-21-7.31-5.78-2.36-14.33-6.2-19-8.55-4.67-2.35-12.55-6.78-17.5-9.85-4.95-3.07-13.5-8.95-19-13.08-5.5-4.13-15.64-13.15-22.53-20.04-6.89-6.88-16.4-17.7-21.14-24.02-4.73-6.33-10.8-15.1-13.48-19.5-2.67-4.4-6.43-11.01-8.35-14.69-1.93-3.67-3.28-6.94-3-7.25 0.27-0.31 31.55 12.31 69.5 28.04 37.95 15.73 74.17 30.31 80.5 32.41 6.33 2.09 17.12 4.76 24 5.92 8.94 1.52 16.92 2.13 28 2.15 9.43 0.02 19.41-0.59 25.5-1.55 5.5-0.87 14.27-2.72 19.5-4.11 5.22-1.39 14-4.3 19.5-6.46 5.5-2.16 14.17-6.3 19.27-9.2 5.09-2.89 13.4-8.18 18.46-11.76 5.05-3.58 13.73-11 19.29-16.5 5.55-5.5 12.99-13.9 16.54-18.66 3.54-4.76 8.68-12.41 11.42-17 2.73-4.59 7.32-13.97 10.19-20.84 2.87-6.88 6.33-16.78 7.69-22 1.36-5.22 3.24-14.67 4.18-21 1.29-8.75 1.58-15.56 1.2-28.5-0.35-11.8-1.17-20.36-2.71-28-1.21-6.05-3.79-15.72-5.73-21.5-1.94-5.78-5.2-14.1-7.24-18.5-2.04-4.4-5.9-11.6-8.56-16-2.66-4.4-7.39-11.38-10.51-15.5-3.12-4.13-8.33-10.39-11.58-13.92-3.25-3.53-9.74-9.62-14.41-13.53-4.67-3.91-11.2-8.95-14.5-11.21-3.3-2.26-10.73-6.59-16.5-9.63-5.78-3.04-40.65-17.98-77.5-33.22-36.85-15.23-69.16-28.66-71.79-29.84-2.63-1.18-4.77-2.49-4.75-2.9 0.02-0.41 4.2-2.08 9.29-3.71 5.09-1.62 12.85-3.85 17.25-4.94 4.4-1.09 12.27-2.71 17.5-3.61 5.23-0.89 13.55-2.01 18.5-2.49 4.95-0.48 16.65-0.69 26-0.46z"/>
</svg>